<svg width="30" height="23" viewBox="0 0 30 23" fill="none" xmlns="http://www.w3.org/2000/svg">
<path d="M28.4089 1.56474C28.4089 1.56474 25.9754 2.87163 24.6222 3.24205C23.8958 2.48288 22.9306 1.94481 21.8569 1.70059C20.7833 1.45638 19.6531 1.51781 18.6191 1.87658C17.5851 2.23534 16.6971 2.87414 16.0756 3.70655C15.4539 4.53898 15.1286 5.52487 15.1434 6.53089V7.62717C13.0241 7.67712 10.9241 7.24984 9.03044 6.38338C7.13677 5.51691 5.50823 4.23816 4.28983 2.66102C4.28983 2.66102 -0.533974 12.5276 10.3196 16.9127C7.83597 18.4452 4.87732 19.2137 1.87793 19.1053C12.7315 24.5867 25.997 19.1053 25.997 6.498C25.9959 6.19263 25.9636 5.88802 25.9005 5.58809C27.1313 4.48467 28.4089 1.56474 28.4089 1.56474Z" stroke="black" stroke-width="2" stroke-linecap="round" stroke-linejoin="round"/>
</svg>
