<svg width="18" height="16" viewBox="0 0 18 16" fill="none" xmlns="http://www.w3.org/2000/svg">
<path d="M14.9869 14.9981C15.6279 14.9981 16.1476 14.5357 16.1476 13.9654C16.1476 13.395 15.6279 12.9326 14.9869 12.9326C14.3459 12.9326 13.8262 13.395 13.8262 13.9654C13.8262 14.5357 14.3459 14.9981 14.9869 14.9981Z" fill="black" stroke="black" stroke-linecap="round" stroke-linejoin="round"/>
<path d="M7.24862 14.9981C7.88965 14.9981 8.40935 14.5357 8.40935 13.9654C8.40935 13.395 7.88965 12.9326 7.24862 12.9326C6.60756 12.9326 6.08789 13.395 6.08789 13.9654C6.08789 14.5357 6.60756 14.9981 7.24862 14.9981Z" fill="black" stroke="black" stroke-linecap="round" stroke-linejoin="round"/>
<path d="M3.76677 2.60453H16.9217L15.3741 10.178H5.31441L3.76677 2.60453ZM3.76677 2.60453C3.6378 2.14553 2.99295 1.22754 1.44531 1.22754" stroke="black" stroke-linecap="round" stroke-linejoin="round"/>
<path d="M15.3739 10.1777H5.31422H3.94515C2.56442 10.1777 1.83203 10.7156 1.83203 11.5547C1.83203 12.3939 2.56442 12.9317 3.94515 12.9317H14.987" stroke="black" stroke-linecap="round" stroke-linejoin="round"/>
</svg>
