<svg width="29" height="19" viewBox="0 0 29 19" fill="none" xmlns="http://www.w3.org/2000/svg">
<path d="M1.98438 10.3312V8.66488C1.98438 5.2556 1.98437 3.55098 3.1355 2.45417C4.28664 1.35736 6.09893 1.30988 9.7235 1.21493C11.441 1.16994 13.1955 1.1377 14.6971 1.1377C16.1987 1.1377 17.9532 1.16994 19.6707 1.21493C23.2953 1.30988 25.1076 1.35736 26.2587 2.45417C27.4099 3.55098 27.4099 5.2556 27.4099 8.66488V10.3312C27.4099 13.7404 27.4099 15.4451 26.2587 16.5418C25.1076 17.6386 23.2954 17.6861 19.6709 17.7811C17.9532 17.8261 16.1987 17.8584 14.6971 17.8584C13.1955 17.8584 11.441 17.8261 9.72338 17.7811C6.09887 17.6861 4.28661 17.6386 3.13549 16.5418C1.98437 15.4451 1.98438 13.7404 1.98438 10.3312Z" stroke="black" stroke-width="2"/>
</svg>
